<svg width="132" height="308" fill="none" xmlns="http://www.w3.org/2000/svg"><path d="M57.082 265.633h.794a3.4 3.4 0 01.65.434l.686.794 19.5 24.664v-26.072h8.414v41.166h-5.2a4.64 4.64 0 01-1.841-.325 4.94 4.94 0 01-1.48-1.227l-19.356-24.484v26.036H51.05v-41.058h5.02a4.13 4.13 0 011.011.072zM21.73 299.108a8.658 8.658 0 003.61-.65 6.638 6.638 0 002.528-1.805 7.984 7.984 0 001.59-2.889c.36-1.255.507-2.561.433-3.864v-24.339h9.497V289.9a18.918 18.918 0 01-1.228 6.933 15.233 15.233 0 01-3.611 5.417 15.524 15.524 0 01-5.561 3.611 20.408 20.408 0 01-7.222 1.264 20.807 20.807 0 01-7.403-1.264 16.176 16.176 0 01-5.561-3.611 15.166 15.166 0 01-3.611-5.417 18.92 18.92 0 01-1.228-6.933v-24.339h9.642v24.303a12.64 12.64 0 00.541 3.864 8.128 8.128 0 001.59 2.925 6.493 6.493 0 002.563 1.805 8.55 8.55 0 003.43.65z" fill="#0E273D"/><path fill-rule="evenodd" clip-rule="evenodd" d="M99.08 265.561v41.058h16.502c2.227.047 4.447-.27 6.572-.939a13.772 13.772 0 004.839-2.6 11.11 11.11 0 002.961-3.936 11.696 11.696 0 001.048-4.875 8.344 8.344 0 00-2.095-5.561 11.553 11.553 0 00-6.03-3.178 14.787 14.787 0 003.213-1.589 9.846 9.846 0 002.167-2.058 8.065 8.065 0 001.228-2.419c.26-.855.394-1.743.397-2.637a11.845 11.845 0 00-.867-4.622 8.225 8.225 0 00-2.744-3.611 13.242 13.242 0 00-4.875-2.239 28.018 28.018 0 00-7.222-.794H99.079zm14.48 17.297h-4.947v-10.183h5.561c.932-.003 1.863.081 2.78.252a4.85 4.85 0 011.95.867c.506.408.893.944 1.12 1.553.268.79.39 1.622.361 2.455a5.778 5.778 0 01-.47 2.492 3.6 3.6 0 01-1.336 1.517 5.52 5.52 0 01-2.166.794c-.942.166-1.897.25-2.853.253zm-4.947 16.575v-10.219h6.644a11.628 11.628 0 012.997.325 5.305 5.305 0 011.914.975c.469.403.819.928 1.011 1.516.195.657.292 1.338.289 2.022a9.015 9.015 0 01-.253 1.95 4.523 4.523 0 01-.938 1.734 5.134 5.134 0 01-1.878 1.228 8.306 8.306 0 01-3.07.469h-6.716z" fill="#0E273D"/><path d="M125.909 161.561c-6.283-29.936-21.341-51.603-35.063-75.833C79.254 59.728 67.409 33.367 65.568 0c-18.886 36.833-15.203 64.53-5.272 91.289 9.93 26.758 30.08 60.378 30.08 88.111-.505 13.686-3.286 23.725-11.339 33.439-8.053 9.714-19.32 7.655-32.753 11.23 2.998.795 5.85 1.517 8.812 2.059a53.28 53.28 0 009.244.866c20.439 0 37.592-1.3 49.653-15.202 12.061-13.903 16.25-29.684 11.916-50.231z" fill="url(#paint0_linear_879_21247)"/><path d="M128.69 160.622c-.289-1.372-.722-2.672-1.047-4.008-2.528-9.317-14.047-35.858-38.82-75.833l-.36-.506c2.238 5.85 15.997 32.861 16.899 41.925.903 9.064 4.045 16.647 3.612 24.122-.867 13.65-11.34 25.748-18.598 33.006-.722 12.675-6.716 45.861-43.875 51.061 2.42.65 4.767 1.192 7.223 1.625a66.15 66.15 0 0011.916 1.083 71.947 71.947 0 0018.417-2.708 73.258 73.258 0 008.558-2.889 70.737 70.737 0 0020.114-13.397 48.515 48.515 0 002.347-2.383 56.376 56.376 0 0013.614-51.098zm-105.227 4.369v-.577c-3.54-13.073-.795-30.803 8.883-55.503a266.316 266.316 0 00-18.561 26.361c-23.256 40.842-9.93 62.833 1.878 76.158-4.261-12.819-.795-34.125 7.8-46.439z" fill="#16406D"/><path d="M72.068 37.664s.578 2.383 1.95 6.355c1.373 3.973 3.611 9.534 6.464 16.142 2.853 6.608 6.428 14.228 10.292 22.389s7.728 17.008 11.339 25.964a142.981 142.981 0 014.911 13.65 61.863 61.863 0 012.78 13.939c.41 4.419.252 8.873-.469 13.252a46.616 46.616 0 01-8.739 19.934 63.306 63.306 0 01-5.092 5.741c-1.516 1.481-2.78 2.564-3.61 3.287l-1.337 1.083s1.733-1.697 4.478-4.839a58.848 58.848 0 004.514-6.067 53.895 53.895 0 004.442-8.558 44.06 44.06 0 002.852-10.833c.62-4.197.729-8.453.325-12.675a59.313 59.313 0 00-2.852-13.253c-1.409-4.442-3.07-8.956-4.767-13.397-3.611-8.956-7.222-17.73-10.834-26a628.928 628.928 0 01-9.425-22.859c-2.636-6.752-4.405-12.53-5.488-16.61a62.58 62.58 0 01-1.084-4.767l-.65-1.878z" fill="#DF625F"/><path d="M90.377 179.4c-21.848 16.358-59.836 10.833-66.95-14.445-10.328 11.736-13.65 33.656-7.764 46.475a64.99 64.99 0 0030.658 18.994c40.625-4.766 43.73-38.422 44.056-51.024z" fill="#055190"/><defs><linearGradient id="paint0_linear_879_21247" x1="121.576" y1="204.208" x2="-11.096" y2="17.875" gradientUnits="userSpaceOnUse"><stop stop-color="#810060"/><stop offset=".51" stop-color="#D5642A"/><stop offset="1" stop-color="#FCB457"/></linearGradient></defs></svg>