<svg width="74" height="53" fill="none" xmlns="http://www.w3.org/2000/svg"><path fill="#F0F7FF" d="M.355 0h72.972v52.414H.355z"/><path fill-rule="evenodd" clip-rule="evenodd" d="M20.636 18.221c-.612.769-1.592 1.375-2.572 1.288-.123-1.039.357-2.143.919-2.825.612-.79 1.684-1.353 2.552-1.396.102 1.082-.296 2.143-.899 2.933zm.887 1.494c-.863-.052-1.651.276-2.287.54-.41.17-.757.315-1.02.315-.297 0-.658-.152-1.063-.323-.531-.223-1.138-.48-1.775-.467-1.46.022-2.818.898-3.563 2.295-1.531 2.793-.398 6.927 1.082 9.2.725 1.126 1.592 2.36 2.736 2.317.503-.02.865-.183 1.24-.352.43-.194.878-.395 1.577-.395.675 0 1.104.196 1.515.385.39.179.766.35 1.323.34 1.184-.022 1.93-1.126 2.654-2.251a10.15 10.15 0 001.178-2.567l.007-.02a.246.246 0 00-.028-.014c-.262-.128-2.26-1.098-2.28-3.699-.019-2.183 1.586-3.29 1.838-3.464l.03-.021c-1.02-1.602-2.613-1.775-3.164-1.819zm8.197 13.736V16.576h5.972c3.083 0 5.237 2.252 5.237 5.542s-2.195 5.564-5.319 5.564h-3.42v5.769h-2.47zm2.47-14.667h2.848c2.144 0 3.37 1.213 3.37 3.345s-1.226 3.355-3.38 3.355H32.19v-6.7zm16.897 12.643c-.654 1.32-2.093 2.154-3.645 2.154-2.297 0-3.9-1.45-3.9-3.637 0-2.165 1.552-3.41 4.421-3.594l3.083-.195v-.93c0-1.375-.847-2.122-2.358-2.122-1.246 0-2.154.682-2.338 1.72h-2.225c.071-2.186 2.01-3.777 4.634-3.777 2.828 0 4.666 1.57 4.666 4.005v8.4h-2.287v-2.024h-.051zm-2.983.151c-1.317 0-2.154-.67-2.154-1.7 0-1.06.806-1.677 2.348-1.774l2.746-.184v.952c0 1.58-1.266 2.706-2.94 2.706zm12.902 2.534c-.99 2.954-2.123 3.929-4.532 3.929-.184 0-.796-.022-.94-.065v-2.024c.154.021.531.043.725.043 1.093 0 1.705-.487 2.083-1.754l.224-.746-4.185-12.286h2.583l2.91 9.97h.05l2.91-9.97h2.51l-4.338 12.902z" fill="#000"/></svg>