<svg width="73" height="53" fill="none" xmlns="http://www.w3.org/2000/svg"><path fill="#F0F7FF" d="M.027 0H73v52.414H.027z"/><path fill-rule="evenodd" clip-rule="evenodd" d="M34.487 33.911v-6.409h3.25c1.333 0 2.457-.454 3.374-1.35l.22-.227c1.674-1.855 1.564-4.744-.22-6.46a4.597 4.597 0 00-3.373-1.375H32.52v15.821h1.967zm.001-8.353v-5.526h3.3a2.64 2.64 0 011.883.783c1.063 1.06 1.087 2.826.06 3.923a2.533 2.533 0 01-1.943.82h-3.3zm16.02-1.626c-.844-.795-1.992-1.199-3.447-1.199-1.87 0-3.275.707-4.204 2.107l1.736 1.123c.635-.959 1.503-1.438 2.603-1.438.696 0 1.368.265 1.894.744.513.454.806 1.11.806 1.804v.467c-.757-.43-1.71-.656-2.884-.656-1.368 0-2.468.328-3.287.997-.819.668-1.234 1.551-1.234 2.674a3.393 3.393 0 001.16 2.65c.77.706 1.748 1.06 2.897 1.06 1.356 0 2.432-.619 3.25-1.855h.086v1.501h1.882v-6.674c0-1.4-.415-2.51-1.258-3.305zm-5.342 7.986a1.655 1.655 0 01-.647-1.325c0-.593.269-1.085.794-1.476.538-.391 1.21-.593 2.005-.593 1.1-.012 1.955.24 2.567.744 0 .858-.33 1.603-.978 2.233a3.078 3.078 0 01-2.213.947 2.355 2.355 0 01-1.528-.53zm10.832 6.75l6.575-15.581h-2.139l-3.043 7.771h-.036l-3.117-7.771H52.1l4.314 10.13-2.445 5.45H56z" fill="#3C4043"/><path d="M27.698 26.115c0-.618-.048-1.236-.146-1.842h-8.298v3.495h4.754a4.217 4.217 0 01-1.76 2.763v2.27h2.835c1.662-1.577 2.616-3.91 2.616-6.686z" fill="#4285F4"/><path d="M19.256 34.997c2.371 0 4.375-.808 5.83-2.196l-2.835-2.27c-.795.555-1.81.87-2.995.87-2.297 0-4.24-1.602-4.937-3.747H11.4V30c1.49 3.065 4.533 4.996 7.857 4.996z" fill="#34A853"/><path d="M14.319 27.654a5.648 5.648 0 010-3.482v-2.334h-2.922a9.266 9.266 0 000 8.15l2.922-2.334z" fill="#FBBC04"/><path d="M19.256 20.425a4.655 4.655 0 013.373 1.363l2.518-2.6c-1.601-1.539-3.703-2.384-5.89-2.359-3.325 0-6.368 1.943-7.859 5.009l2.921 2.347c.697-2.158 2.64-3.76 4.937-3.76z" fill="#EA4335"/></svg>