<svg width="73" height="54" fill="none" xmlns="http://www.w3.org/2000/svg"><path fill="#F0F7FF" d="M0 0h72.972v53.086H0z"/><path fill-rule="evenodd" clip-rule="evenodd" d="M36.868 37.224a14.342 14.342 0 01-9.44 3.54c-8.037 0-14.553-6.634-14.553-14.819s6.516-14.82 14.553-14.82c3.602 0 6.9 1.333 9.44 3.541a14.343 14.343 0 019.441-3.54c8.037 0 14.553 6.634 14.553 14.819s-6.516 14.82-14.553 14.82a14.34 14.34 0 01-9.44-3.541z" fill="#ED0006"/><path fill-rule="evenodd" clip-rule="evenodd" d="M36.867 37.227a14.9 14.9 0 005.114-11.28 14.9 14.9 0 00-5.114-11.28 14.342 14.342 0 019.44-3.54c8.037 0 14.552 6.635 14.552 14.82 0 8.184-6.515 14.82-14.553 14.82a14.342 14.342 0 01-9.439-3.54z" fill="#F9A000"/><path fill-rule="evenodd" clip-rule="evenodd" d="M36.87 37.224a14.899 14.899 0 005.113-11.279 14.9 14.9 0 00-5.113-11.279 14.9 14.9 0 00-5.112 11.28c0 4.516 1.984 8.56 5.112 11.278z" fill="#FF5E00"/></svg>