<svg width="74" height="53" fill="none" xmlns="http://www.w3.org/2000/svg"><path fill="#F0F7FF" d="M.676 0h72.972v52.414H.676z"/><path fill-rule="evenodd" clip-rule="evenodd" d="M23.747 34.634h-4.42l-3.315-13.247c-.158-.61-.492-1.148-.983-1.402-1.227-.638-2.578-1.146-4.052-1.402v-.51h7.121c.983 0 1.72.766 1.843 1.656l1.72 9.556 4.418-11.212h4.298l-6.63 16.561zm9.089 0H28.66l3.438-16.561h4.174l-3.437 16.561zm8.838-11.973c.123-.892.86-1.402 1.72-1.402 1.351-.128 2.823.128 4.052.764l.737-3.566a10.15 10.15 0 00-3.806-.766c-4.053 0-7.001 2.294-7.001 5.478 0 2.422 2.089 3.693 3.563 4.46 1.595.763 2.21 1.273 2.086 2.037 0 1.146-1.228 1.656-2.455 1.656-1.474 0-2.948-.382-4.298-1.02l-.737 3.568c1.475.636 3.07.892 4.544.892 4.543.126 7.367-2.166 7.367-5.606 0-4.331-5.772-4.585-5.772-6.495zm20.381 11.973L58.74 18.073h-3.56c-.737 0-1.475.51-1.72 1.274l-6.14 15.287h4.298l.858-2.42h5.28l.492 2.42h3.806zm-6.257-12.102l1.227 6.242h-3.438l2.211-6.242z" fill="#172B85"/></svg>