<svg width="50" height="50" viewBox="0 0 50 50" fill="none" xmlns="http://www.w3.org/2000/svg">
<path d="M29.6875 49C27.6891 49 26.0625 47.325 26.0625 45.2641C26.0625 44.3141 26.425 43.4219 27.0641 42.75H10.9375C10.6266 42.75 10.375 42.4984 10.375 42.1875V41.7875C10.375 41.5828 10.4859 41.3937 10.6656 41.2953C11.4891 40.8406 12 39.9859 12 39.0625C12 37.65 10.85 36.5 9.4375 36.5C8.025 36.5 6.875 37.6484 6.875 39.0625C6.875 39.9531 7.33594 40.7687 8.10781 41.2422C8.275 41.3438 8.37656 41.5266 8.37656 41.7219V42.1875C8.37656 42.4984 8.125 42.75 7.81406 42.75H1.5625C1.25156 42.75 1 42.4984 1 42.1875V7.8125C1 7.50156 1.25156 7.25 1.5625 7.25H6.80312C6.13906 6.56875 5.75 5.64531 5.75 4.6875C5.75 2.62031 7.34219 1 9.375 1C11.4422 1 13.125 2.65469 13.125 4.6875C13.125 5.65781 12.7359 6.57344 12.0687 7.25H27.1156C26.4516 6.56875 26.0625 5.64531 26.0625 4.6875C26.0625 2.62031 27.6547 1 29.6875 1C31.7547 1 33.4375 2.65469 33.4375 4.6875C33.4375 5.65781 33.0484 6.57344 32.3797 7.25H42.1875C42.4984 7.25 42.75 7.50156 42.75 7.8125V15.625C42.75 15.9359 42.4984 16.1875 42.1875 16.1875H41.8125C41.6062 16.1875 41.4172 16.075 41.3203 15.8953C40.8828 15.1 40.0453 14.625 39.0781 14.625C37.6562 14.625 36.5016 15.775 36.5016 17.1875C36.5016 18.6 37.6562 19.75 39.0781 19.75C39.9266 19.75 40.7687 19.2516 41.2734 18.45C41.3766 18.2875 41.5562 18.1875 41.75 18.1875H42.1875C42.4984 18.1875 42.75 18.4391 42.75 18.75V31.6703C43.4172 31.05 44.325 30.6875 45.2969 30.6875C47.3391 30.6875 49 32.3422 49 34.375C49 36.4078 47.3391 38.0625 45.2969 38.0625C44.3562 38.0625 43.4406 37.6594 42.75 36.975V42.1875C42.75 42.4984 42.4984 42.75 42.1875 42.75H32.4266C33.0656 43.4219 33.4375 44.3172 33.4375 45.2641C33.4375 47.2906 31.7203 49 29.6875 49ZM22.4375 41.625H28.125C28.4359 41.625 28.6875 41.8766 28.6875 42.1875V42.6094C28.6875 42.8047 28.5859 42.9859 28.4187 43.0891C27.6469 43.5625 27.1875 44.375 27.1875 45.2656C27.1875 46.7047 28.3094 47.875 29.6875 47.875C31.1109 47.875 32.3125 46.6797 32.3125 45.2656C32.3125 44.3437 31.8031 43.4922 30.9797 43.0406C30.8 42.9437 30.6859 42.7531 30.6859 42.5484V42.1875C30.6859 41.8766 30.9375 41.625 31.2484 41.625H41.6234V35.9375C41.6234 35.6266 41.875 35.375 42.1859 35.375H42.6391C42.8344 35.375 43.0156 35.4766 43.1187 35.6437C43.6078 36.4422 44.4437 36.9375 45.2969 36.9375C46.7187 36.9375 47.8734 35.7891 47.8734 34.375C47.8734 32.9609 46.7187 31.8125 45.2969 31.8125C44.3297 31.8125 43.4922 32.2875 43.0547 33.0812C42.9578 33.2609 42.7672 33.375 42.5625 33.375H42.1875C41.8766 33.375 41.625 33.1234 41.625 32.8125V25.5625H22.4375V31.6703C23.1047 31.0437 24.0031 30.6875 24.9891 30.6875C27.0281 30.6875 28.6891 32.3422 28.6891 34.375C28.6891 36.4078 27.0297 38.0625 24.9891 38.0625C24.0469 38.0625 23.1297 37.6625 22.4375 36.9812V41.625ZM12.0719 41.625H21.3141V35.9375C21.3141 35.6266 21.5656 35.375 21.8766 35.375H22.3219C22.5172 35.375 22.6984 35.4766 22.8016 35.6437C23.2922 36.4422 24.1312 36.9375 24.9906 36.9375C26.4094 36.9375 27.5641 35.7891 27.5641 34.375C27.5641 32.9609 26.4094 31.8125 24.9906 31.8125C24.0281 31.8125 23.1891 32.2875 22.7469 33.0844C22.6484 33.2625 22.4594 33.375 22.2547 33.375H21.875C21.5641 33.375 21.3125 33.1234 21.3125 32.8125V25.5625H10.9375C10.6266 25.5625 10.375 25.3109 10.375 25V24.6C10.375 24.3953 10.4859 24.2062 10.6656 24.1078C11.4891 23.6531 12 22.7969 12 21.875C12 20.4625 10.85 19.3125 9.4375 19.3125C8.025 19.3125 6.875 20.4625 6.875 21.875C6.875 22.7656 7.33594 23.5812 8.10781 24.0531C8.275 24.1547 8.37656 24.3375 8.37656 24.5328V25C8.37656 25.3109 8.125 25.5625 7.81406 25.5625H2.125V41.625H6.79531C6.12812 40.9453 5.75 40.0359 5.75 39.0625C5.75 37.0281 7.40469 35.375 9.4375 35.375C11.4703 35.375 13.125 37.0297 13.125 39.0625C13.1234 40.0297 12.7359 40.9469 12.0719 41.625ZM22.4375 24.4375H41.625V19.7922C40.9266 20.475 40.0109 20.8734 39.0781 20.8734C37.0359 20.8734 35.375 19.2187 35.375 17.1859C35.375 15.1531 37.0359 13.4984 39.0781 13.4984C40.05 13.4984 40.9578 13.8594 41.625 14.4797V8.375H31.25C30.9391 8.375 30.6875 8.12344 30.6875 7.8125V7.40625C30.6875 7.20156 30.8 7.0125 30.9812 6.91406C31.8031 6.4625 32.3125 5.60938 32.3125 4.6875C32.3125 3.29844 31.1109 2.125 29.6875 2.125C28.2859 2.125 27.1875 3.25156 27.1875 4.6875C27.1875 5.57656 27.6469 6.39062 28.4187 6.86562C28.5859 6.96719 28.6875 7.14844 28.6875 7.34375V7.8125C28.6875 8.12344 28.4359 8.375 28.125 8.375H22.4375V14.4828C23.1062 13.8625 24.0125 13.5016 24.9844 13.5016C27.0266 13.5016 28.6875 15.1562 28.6875 17.1891C28.6875 19.2219 27.0266 20.8766 24.9844 20.8766C24.0453 20.8766 23.1281 20.475 22.4375 19.7891V24.4375ZM12.0719 24.4375H21.3141V18.75C21.3141 18.4391 21.5656 18.1875 21.8766 18.1875H22.3297C22.525 18.1875 22.7062 18.2891 22.8094 18.4547C23.3 19.2531 24.1344 19.75 24.9875 19.75C26.4094 19.75 27.5641 18.6 27.5641 17.1875C27.5641 15.775 26.4062 14.625 24.9844 14.625C24.0172 14.625 23.1797 15.1 22.7437 15.8953C22.6453 16.075 22.4547 16.1875 22.25 16.1875H21.875C21.5641 16.1875 21.3125 15.9359 21.3125 15.625V8.375H10.9375C10.6266 8.375 10.375 8.12344 10.375 7.8125V7.40625C10.375 7.20156 10.4859 7.0125 10.6672 6.91406C11.4891 6.4625 12 5.60938 12 4.6875C12 3.29844 10.7969 2.125 9.375 2.125C7.97344 2.125 6.875 3.25156 6.875 4.6875C6.875 5.56406 7.34687 6.39844 8.10781 6.86562C8.27344 6.96719 8.375 7.14844 8.375 7.34375V7.8125C8.375 8.12344 8.12344 8.375 7.8125 8.375H2.125V24.4375H6.79531C6.12812 23.7594 5.75 22.85 5.75 21.875C5.75 19.8422 7.40469 18.1875 9.4375 18.1875C11.4703 18.1875 13.125 19.8422 13.125 21.875C13.1234 22.8437 12.7359 23.7594 12.0719 24.4375Z" fill="#4A98F7"/>
</svg>
