<svg width="50" height="50" viewBox="0 0 50 50" fill="none" xmlns="http://www.w3.org/2000/svg">
<path d="M40.625 49C37.7297 49 35.375 46.6437 35.375 43.75V9.9375H30.25V43.75C30.25 46.6453 27.8937 49 25 49C22.1062 49 19.75 46.6437 19.75 43.75V9.9375H14.625V43.75C14.625 46.6453 12.2703 49 9.375 49C6.47969 49 4.125 46.6453 4.125 43.75V9.9375H1.5625C1.25156 9.9375 1 9.68594 1 9.375C1 9.06406 1.25156 8.8125 1.5625 8.8125H4.125V2.125H3.125C2.81406 2.125 2.5625 1.87344 2.5625 1.5625C2.5625 1.25156 2.81406 1 3.125 1H15.625C15.9359 1 16.1875 1.25156 16.1875 1.5625C16.1875 1.87344 15.9359 2.125 15.625 2.125H14.625V8.8125H19.75V2.125H18.75C18.4391 2.125 18.1875 1.87344 18.1875 1.5625C18.1875 1.25156 18.4391 1 18.75 1H31.25C31.5609 1 31.8125 1.25156 31.8125 1.5625C31.8125 1.87344 31.5609 2.125 31.25 2.125H30.25V8.8125H35.3734V2.125H34.375C34.0641 2.125 33.8125 1.87344 33.8125 1.5625C33.8125 1.25156 34.0641 1 34.375 1H46.875C47.1859 1 47.4375 1.25156 47.4375 1.5625C47.4375 1.87344 47.1859 2.125 46.875 2.125H45.875V8.8125H48.4375C48.7484 8.8125 49 9.06406 49 9.375C49 9.68594 48.7484 9.9375 48.4375 9.9375H45.875V43.75C45.875 46.6453 43.5203 49 40.625 49ZM36.5 20.875V43.75C36.5 46.025 38.35 47.875 40.625 47.875C42.9 47.875 44.75 46.025 44.75 43.75V20.875H36.5ZM20.875 36.5V43.75C20.875 46.025 22.7266 47.875 25 47.875C27.275 47.875 29.125 46.025 29.125 43.75V36.5H20.875ZM5.25 27.125V43.75C5.25 46.025 7.10156 47.875 9.375 47.875C11.6484 47.875 13.5 46.025 13.5 43.75V27.125H5.25ZM20.875 35.375H29.125V9.9375H20.875V35.375ZM5.25 26H13.5V9.9375H5.25V26ZM36.5 19.75H44.7484V9.9375H36.5V19.75ZM36.5 8.8125H44.7484V2.125H36.5V8.8125ZM20.875 8.8125H29.125V2.125H20.875V8.8125ZM5.25 8.8125H13.5V2.125H5.25V8.8125Z" fill="#4A98F7"/>
</svg>
