<svg width="50" height="50" viewBox="0 0 50 50" fill="none" xmlns="http://www.w3.org/2000/svg">
<path d="M16.1875 24.4734V16.1313C17.9531 15.8578 19.3125 14.3422 19.3125 12.5016C19.3125 10.4688 17.6578 8.81406 15.625 8.81406C13.5922 8.81406 11.9375 10.4672 11.9375 12.5C11.9375 14.3406 13.2969 15.8578 15.0625 16.1297V24.45C14.825 24.4469 14.5938 24.4359 14.3531 24.4359H6.8125V14.5672C8.57812 14.2937 9.9375 12.7781 9.9375 10.9375C9.9375 8.90469 8.28281 7.25 6.25 7.25C4.21719 7.25 2.5625 8.90469 2.5625 10.9375C2.5625 12.7781 3.92188 14.2953 5.6875 14.5672V24.4375H1.5625V25.5625H6.24687C6.24844 25.5625 6.25 25.5625 6.25 25.5625H6.25312H14.3531C25.5156 25.5625 33.4906 28.8797 40.2062 36.3141L41.0422 35.5609C34.4688 28.2844 26.7437 24.8266 16.1875 24.4734ZM3.6875 10.9375C3.6875 9.525 4.8375 8.375 6.25 8.375C7.6625 8.375 8.8125 9.525 8.8125 10.9375C8.8125 12.35 7.6625 13.5 6.25 13.5C4.8375 13.5 3.6875 12.35 3.6875 10.9375ZM13.0625 12.5C13.0625 11.0875 14.2125 9.9375 15.625 9.9375C17.0375 9.9375 18.1875 11.0875 18.1875 12.5C18.1875 13.9125 17.0375 15.0625 15.625 15.0625C14.2125 15.0625 13.0625 13.9125 13.0625 12.5ZM41.0438 48.0609L40.2078 48.8141C33.4906 41.3781 25.5172 38.0625 14.3547 38.0625H1.5625V36.9375H14.3531C25.8609 36.9375 34.0922 40.3688 41.0438 48.0609ZM41.0438 41.8109L40.2078 42.5641C33.4906 35.1281 25.5172 31.8125 14.3547 31.8125H1.5625V30.6875H14.3531C25.8609 30.6875 34.0922 34.1188 41.0438 41.8109ZM37.5 17.75C34.6047 17.75 32.25 15.3953 32.25 12.5C32.25 9.60469 34.6047 7.25 37.5 7.25C40.3953 7.25 42.75 9.60469 42.75 12.5C42.75 15.3953 40.3953 17.75 37.5 17.75ZM37.5 8.375C35.225 8.375 33.375 10.2266 33.375 12.5C33.375 14.7734 35.225 16.625 37.5 16.625C39.775 16.625 41.625 14.775 41.625 12.5C41.625 10.225 39.775 8.375 37.5 8.375ZM37.5 5.25C37.1891 5.25 36.9375 4.99844 36.9375 4.6875V1.5625C36.9375 1.25156 37.1891 1 37.5 1C37.8109 1 38.0625 1.25156 38.0625 1.5625V4.6875C38.0625 4.99844 37.8109 5.25 37.5 5.25ZM31.9766 7.5375C31.8328 7.5375 31.6875 7.48281 31.5781 7.37344L29.3672 5.16406C29.1469 4.94375 29.1469 4.5875 29.3672 4.36875C29.5875 4.15 29.9438 4.15 30.1641 4.36875L32.375 6.57813C32.5953 6.79844 32.5953 7.15469 32.375 7.37344C32.2641 7.48281 32.1203 7.5375 31.9766 7.5375ZM29.6875 13.0625H26.5625C26.2516 13.0625 26 12.8109 26 12.5C26 12.1891 26.2516 11.9375 26.5625 11.9375H29.6875C29.9984 11.9375 30.25 12.1891 30.25 12.5C30.25 12.8109 29.9984 13.0625 29.6875 13.0625ZM29.7656 20.7969C29.6219 20.7969 29.4766 20.7422 29.3672 20.6328C29.1469 20.4125 29.1469 20.0562 29.3672 19.8375L31.5781 17.6281C31.7984 17.4094 32.1547 17.4094 32.375 17.6281C32.5953 17.8469 32.5953 18.2047 32.375 18.4234L30.1641 20.6328C30.0531 20.7406 29.9094 20.7969 29.7656 20.7969ZM37.5 24C37.1891 24 36.9375 23.7484 36.9375 23.4375V20.3125C36.9375 20.0016 37.1891 19.75 37.5 19.75C37.8109 19.75 38.0625 20.0016 38.0625 20.3125V23.4375C38.0625 23.7484 37.8109 24 37.5 24ZM45.2344 20.7969C45.0906 20.7969 44.9453 20.7422 44.8359 20.6328L42.625 18.4234C42.4047 18.2031 42.4047 17.8469 42.625 17.6281C42.8453 17.4094 43.2016 17.4094 43.4219 17.6281L45.6328 19.8375C45.8531 20.0578 45.8531 20.4141 45.6328 20.6328C45.5234 20.7406 45.3781 20.7969 45.2344 20.7969ZM48.4375 13.0625H45.3125C45.0016 13.0625 44.75 12.8109 44.75 12.5C44.75 12.1891 45.0016 11.9375 45.3125 11.9375H48.4375C48.7484 11.9375 49 12.1891 49 12.5C49 12.8109 48.7484 13.0625 48.4375 13.0625ZM43.0234 7.5375C42.8797 7.5375 42.7344 7.48281 42.625 7.37344C42.4047 7.15312 42.4047 6.79688 42.625 6.57813L44.8359 4.36875C45.0562 4.15 45.4125 4.15 45.6328 4.36875C45.8531 4.5875 45.8531 4.94531 45.6328 5.16406L43.4219 7.37344C43.3125 7.48281 43.1672 7.5375 43.0234 7.5375Z" fill="#4A98F7"/>
</svg>
