<svg width="50" height="50" viewBox="0 0 50 50" fill="none" xmlns="http://www.w3.org/2000/svg">
<path d="M48.4375 41.1875C47.0344 41.1875 45.8672 40.1625 45.0969 39.4844C44.2547 38.7437 43.4781 38.0625 42.5781 38.0625C41.6375 38.0625 40.7828 38.8141 40.0266 39.4781C39.1469 40.25 38.0781 41.1875 36.7188 41.1875C35.3547 41.1875 34.2844 40.2453 33.4266 39.4906C32.6516 38.8109 31.7969 38.0625 30.8594 38.0625C29.9188 38.0625 29.0641 38.8141 28.3078 39.4781C27.4281 40.2516 26.3609 41.1875 25 41.1875C23.6375 41.1875 22.5688 40.2484 21.7109 39.4937C20.9344 38.8125 20.0797 38.0625 19.1406 38.0625C18.2016 38.0625 17.3484 38.8125 16.5938 39.475C15.7125 40.25 14.6438 41.1875 13.2812 41.1875C11.9187 41.1875 10.85 40.2484 9.99219 39.4937C9.21406 38.8141 8.36094 38.0625 7.42188 38.0625C6.48281 38.0625 5.62969 38.8125 4.875 39.475C3.99375 40.25 2.925 41.1875 1.5625 41.1875V40.0625C2.50156 40.0625 3.35469 39.3125 4.10938 38.65C4.99063 37.8766 6.05937 36.9375 7.42188 36.9375C8.78438 36.9375 9.85312 37.8766 10.7109 38.6313C11.4891 39.3109 12.3422 40.0625 13.2812 40.0625C14.2203 40.0625 15.0734 39.3125 15.8281 38.65C16.7094 37.8766 17.7781 36.9375 19.1406 36.9375C20.5031 36.9375 21.5719 37.8766 22.4297 38.6313C23.2062 39.3125 24.0609 40.0625 25 40.0625C25.9375 40.0625 26.7906 39.3141 27.5438 38.6531C28.425 37.8797 29.4953 36.9375 30.8594 36.9375C32.2188 36.9375 33.2875 37.875 34.1469 38.6281C34.9234 39.3109 35.7797 40.0625 36.7188 40.0625C37.6562 40.0625 38.5094 39.3141 39.2625 38.6531C40.1437 37.8797 41.2141 36.9375 42.5781 36.9375C43.9031 36.9375 44.925 37.8375 45.7469 38.5594C46.5219 39.2422 47.4578 40.0625 48.4375 40.0625V41.1875ZM48.4375 31.8125C47.0344 31.8125 45.8672 30.7875 45.0969 30.1094C44.2547 29.3687 43.4781 28.6875 42.5781 28.6875C41.6375 28.6875 40.7828 29.4391 40.0266 30.1031C39.1469 30.875 38.0781 31.8125 36.7188 31.8125C35.3547 31.8125 34.2844 30.8703 33.4266 30.1156C32.6516 29.4359 31.7969 28.6875 30.8594 28.6875C29.9188 28.6875 29.0641 29.4391 28.3078 30.1031C27.4281 30.8766 26.3609 31.8125 25 31.8125C23.6375 31.8125 22.5688 30.8734 21.7109 30.1187C20.9344 29.4375 20.0797 28.6875 19.1406 28.6875C18.2016 28.6875 17.3484 29.4375 16.5938 30.1C15.7125 30.875 14.6438 31.8125 13.2812 31.8125C11.9187 31.8125 10.85 30.8734 9.99219 30.1187C9.21406 29.4391 8.36094 28.6875 7.42188 28.6875C6.48281 28.6875 5.62969 29.4375 4.875 30.1C3.99375 30.875 2.925 31.8125 1.5625 31.8125V30.6875C2.50156 30.6875 3.35469 29.9375 4.10938 29.275C4.99063 28.5016 6.05937 27.5625 7.42188 27.5625C8.78438 27.5625 9.85312 28.5016 10.7109 29.2563C11.4891 29.9359 12.3422 30.6875 13.2812 30.6875C14.2203 30.6875 15.0734 29.9375 15.8281 29.275C16.7094 28.5016 17.7781 27.5625 19.1406 27.5625C20.5031 27.5625 21.5719 28.5016 22.4297 29.2563C23.2062 29.9375 24.0609 30.6875 25 30.6875C25.9375 30.6875 26.7906 29.9391 27.5438 29.2781C28.425 28.5047 29.4953 27.5625 30.8594 27.5625C32.2188 27.5625 33.2875 28.5 34.1469 29.2531C34.9234 29.9359 35.7797 30.6875 36.7188 30.6875C37.6562 30.6875 38.5094 29.9391 39.2625 29.2781C40.1437 28.5047 41.2141 27.5625 42.5781 27.5625C43.9031 27.5625 44.925 28.4625 45.7469 29.1844C46.5219 29.8672 47.4578 30.6875 48.4375 30.6875V31.8125ZM48.4375 22.4375C47.0344 22.4375 45.8672 21.4125 45.0969 20.7359C44.2547 19.9953 43.4781 19.3125 42.5781 19.3125C41.6375 19.3125 40.7828 20.0641 40.0266 20.7281C39.1469 21.5 38.0781 22.4375 36.7188 22.4375C35.3547 22.4375 34.2844 21.4969 33.4266 20.7422C32.6516 20.0625 31.7969 19.3125 30.8594 19.3125C29.9188 19.3125 29.0641 20.0641 28.3078 20.7281C27.4281 21.5 26.3609 22.4375 25 22.4375C23.6375 22.4375 22.5688 21.4984 21.7109 20.7453C20.9344 20.0625 20.0797 19.3125 19.1406 19.3125C18.2016 19.3125 17.3484 20.0625 16.5938 20.725C15.7125 21.4984 14.6438 22.4375 13.2812 22.4375C11.9187 22.4375 10.85 21.4984 9.99219 20.7453C9.21406 20.0625 8.36094 19.3125 7.42188 19.3125C6.48281 19.3125 5.62969 20.0625 4.875 20.725C3.99375 21.4984 2.925 22.4375 1.5625 22.4375V21.3125C2.50156 21.3125 3.35469 20.5625 4.10938 19.9C4.99063 19.1266 6.05937 18.1875 7.42188 18.1875C8.78438 18.1875 9.85312 19.1266 10.7109 19.8797C11.4891 20.5625 12.3422 21.3125 13.2812 21.3125C14.2203 21.3125 15.0734 20.5625 15.8281 19.9C16.7094 19.1266 17.7781 18.1875 19.1406 18.1875C20.5031 18.1875 21.5719 19.1266 22.4297 19.8797C23.2078 20.5625 24.0609 21.3125 25 21.3125C25.9375 21.3125 26.7906 20.5641 27.5438 19.9016C28.425 19.1266 29.4953 18.1875 30.8594 18.1875C32.2188 18.1875 33.2875 19.125 34.1469 19.8766C34.9234 20.5609 35.7797 21.3125 36.7188 21.3125C37.6562 21.3125 38.5094 20.5641 39.2625 19.9016C40.1437 19.1266 41.2141 18.1875 42.5781 18.1875C43.9031 18.1875 44.925 19.0875 45.7469 19.8094C46.5219 20.4906 47.4578 21.3125 48.4375 21.3125V22.4375ZM48.4375 13.0625C47.0344 13.0625 45.8672 12.0375 45.0969 11.3609C44.2547 10.6203 43.4781 9.9375 42.5781 9.9375C41.6375 9.9375 40.7828 10.6891 40.0266 11.3531C39.1469 12.125 38.0781 13.0625 36.7188 13.0625C35.3547 13.0625 34.2844 12.1219 33.4266 11.3672C32.65 10.6859 31.7969 9.9375 30.8594 9.9375C29.9188 9.9375 29.0641 10.6891 28.3078 11.3531C27.4281 12.125 26.3609 13.0625 25 13.0625C23.6375 13.0625 22.5688 12.1234 21.7109 11.3703C20.9328 10.6875 20.0797 9.9375 19.1406 9.9375C18.2016 9.9375 17.3484 10.6875 16.5938 11.35C15.7125 12.1234 14.6438 13.0625 13.2812 13.0625C11.9187 13.0625 10.85 12.1234 9.99219 11.3703C9.21406 10.6875 8.36094 9.9375 7.42188 9.9375C6.48281 9.9375 5.62969 10.6875 4.875 11.35C3.99375 12.1234 2.925 13.0625 1.5625 13.0625V11.9375C2.50156 11.9375 3.35469 11.1875 4.10938 10.525C4.99063 9.75156 6.05937 8.8125 7.42188 8.8125C8.78438 8.8125 9.85312 9.75156 10.7109 10.5047C11.4891 11.1875 12.3422 11.9375 13.2812 11.9375C14.2203 11.9375 15.0734 11.1875 15.8281 10.525C16.7094 9.75156 17.7781 8.8125 19.1406 8.8125C20.5031 8.8125 21.5719 9.75156 22.4297 10.5047C23.2078 11.1875 24.0609 11.9375 25 11.9375C25.9375 11.9375 26.7906 11.1891 27.5438 10.5266C28.425 9.75156 29.4953 8.8125 30.8594 8.8125C32.2188 8.8125 33.2875 9.75 34.1469 10.5016C34.9234 11.1859 35.7781 11.9375 36.7188 11.9375C37.6562 11.9375 38.5094 11.1891 39.2625 10.5266C40.1437 9.75156 41.2141 8.8125 42.5781 8.8125C43.9031 8.8125 44.925 9.7125 45.7469 10.4344C46.5219 11.1156 47.4578 11.9375 48.4375 11.9375V13.0625Z" fill="#4A98F7"/>
</svg>
