<svg width="50" height="50" viewBox="0 0 50 50" fill="none" xmlns="http://www.w3.org/2000/svg">
<path d="M25 49C23.8281 49 22.875 48.0469 22.875 46.875C22.875 46.6922 22.8984 46.5156 22.9406 46.3469L15.5625 42.1297C15.1781 42.5125 14.6484 42.75 14.0625 42.75C12.8906 42.75 11.9375 41.7969 11.9375 40.625C11.9375 39.9531 12.25 39.3547 12.7375 38.9641L9.66562 31.7937C8.42969 31.9453 7.25 30.9562 7.25 29.6875C7.25 28.7109 7.9125 27.8859 8.8125 27.6375V11.425C7.9125 11.1781 7.25 10.3531 7.25 9.375C7.25 8.20312 8.20313 7.25 9.375 7.25C10.0656 7.25 10.6797 7.57969 11.0672 8.09219L22.8875 3.36406C22.8797 3.28594 22.875 3.20625 22.875 3.125C22.875 1.95312 23.8281 1 25 1C26.1719 1 27.125 1.95312 27.125 3.125C27.125 3.20625 27.1203 3.28594 27.1109 3.36406L38.9312 8.09219C39.3203 7.58125 39.9359 7.25 40.625 7.25C41.7969 7.25 42.75 8.20312 42.75 9.375C42.75 10.3516 42.0859 11.1766 41.1875 11.425V27.6391C42.0859 27.8859 42.75 28.7125 42.75 29.6891C42.75 30.9578 41.5656 31.9469 40.3344 31.7953L37.2594 38.9656C37.7469 39.3562 38.0625 39.9562 38.0625 40.6266C38.0625 41.7984 37.1094 42.7516 35.9375 42.7516C35.3531 42.7516 34.8219 42.5141 34.4375 42.1312L27.0578 46.3484C27.1031 46.5156 27.125 46.6922 27.125 46.875C27.125 48.0469 26.1719 49 25 49ZM25 45.875C24.4484 45.875 24 46.3234 24 46.875C24 47.4266 24.4484 47.875 25 47.875C25.5516 47.875 26 47.4266 26 46.875C26 46.3234 25.5516 45.875 25 45.875ZM25 44.75C25.5844 44.75 26.1141 44.9875 26.4984 45.3703L33.8781 41.1531C33.8344 40.9828 33.8125 40.8062 33.8125 40.625C33.8125 39.3562 34.9906 38.3625 36.2281 38.5187L39.3031 31.3484C38.8141 30.9578 38.5 30.3594 38.5 29.6875C38.5 28.7109 39.1641 27.8859 40.0625 27.6375V11.425C39.1641 11.1781 38.5 10.3531 38.5 9.375C38.5 9.29375 38.5047 9.21406 38.5141 9.13594L26.6937 4.40781C26.3047 4.91875 25.6891 5.25 25 5.25C24.3094 5.25 23.6953 4.92031 23.3078 4.40781L11.4875 9.13594C11.4953 9.21406 11.5 9.29375 11.5 9.375C11.5 10.3516 10.8375 11.1766 9.9375 11.425V27.6391C10.8375 27.8859 11.5 28.7125 11.5 29.6891C11.5 30.3609 11.1875 30.9594 10.7 31.35L13.7719 38.5203C14.9984 38.3578 16.1859 39.3562 16.1875 40.6266C16.1875 40.8078 16.1641 40.9844 16.1219 41.1547L23.5016 45.3719C23.8859 44.9875 24.4156 44.75 25 44.75ZM35.9375 39.625C35.3859 39.625 34.9375 40.0734 34.9375 40.625C34.9375 41.1766 35.3859 41.625 35.9375 41.625C36.4891 41.625 36.9375 41.1766 36.9375 40.625C36.9375 40.0734 36.4891 39.625 35.9375 39.625ZM14.0625 39.625C13.5109 39.625 13.0625 40.0734 13.0625 40.625C13.0625 41.1766 13.5109 41.625 14.0625 41.625C14.6141 41.625 15.0625 41.1766 15.0625 40.625C15.0625 40.0734 14.6141 39.625 14.0625 39.625ZM40.625 28.6875C40.0734 28.6875 39.625 29.1359 39.625 29.6875C39.625 30.2391 40.0734 30.6875 40.625 30.6875C41.1766 30.6875 41.625 30.2391 41.625 29.6875C41.625 29.1359 41.1766 28.6875 40.625 28.6875ZM9.375 28.6875C8.82344 28.6875 8.375 29.1359 8.375 29.6875C8.375 30.2391 8.82344 30.6875 9.375 30.6875C9.92656 30.6875 10.375 30.2391 10.375 29.6875C10.375 29.1359 9.92656 28.6875 9.375 28.6875ZM40.625 8.375C40.0734 8.375 39.625 8.82344 39.625 9.375C39.625 9.92656 40.0734 10.375 40.625 10.375C41.1766 10.375 41.625 9.92656 41.625 9.375C41.625 8.82344 41.1766 8.375 40.625 8.375ZM9.375 8.375C8.82344 8.375 8.375 8.82344 8.375 9.375C8.375 9.92656 8.82344 10.375 9.375 10.375C9.92656 10.375 10.375 9.92656 10.375 9.375C10.375 8.82344 9.92656 8.375 9.375 8.375ZM25 2.125C24.4484 2.125 24 2.57344 24 3.125C24 3.67656 24.4484 4.125 25 4.125C25.5516 4.125 26 3.67656 26 3.125C26 2.57344 25.5516 2.125 25 2.125ZM33.375 32.8125H32.25V30.4687C32.25 27.2203 30.0437 24.3547 26.8844 23.5C26.6562 23.4375 26.4937 23.2422 26.4703 23.0094C26.4484 22.775 26.5734 22.5531 26.7844 22.45C28.2281 21.7516 29.1234 20.3344 29.1234 18.75C29.1234 16.475 27.2734 14.625 24.9984 14.625C22.7234 14.625 20.8734 16.4766 20.8734 18.75C20.8734 20.3344 21.7703 21.7516 23.2125 22.45C23.4234 22.5516 23.55 22.775 23.5281 23.0094C23.5062 23.2422 23.3406 23.4375 23.1156 23.5C19.9562 24.3547 17.75 27.2203 17.75 30.4687V32.8125H16.625V30.4687C16.625 27.1156 18.6562 24.1156 21.6891 22.8094C20.4703 21.8281 19.75 20.3562 19.75 18.75C19.75 15.8547 22.1047 13.5 25 13.5C27.8953 13.5 30.25 15.8547 30.25 18.75C30.25 20.3562 29.5281 21.8281 28.3109 22.8094C31.3422 24.1156 33.375 27.1156 33.375 30.4687V32.8125Z" fill="#4A98F7"/>
</svg>
