<svg width="50" height="50" viewBox="0 0 50 50" fill="none" xmlns="http://www.w3.org/2000/svg">
<path d="M26.8811 25.567C27.8967 25.567 29.1889 25.2686 30.3545 24.1029C32.6873 21.7701 31.5436 18.9295 31.4936 18.8107C31.4373 18.6732 31.3295 18.5639 31.192 18.5076C31.0701 18.4592 28.2295 17.3123 25.8982 19.6467C25.492 20.0529 25.2217 20.4732 25.0014 20.892C24.7826 20.4732 24.5107 20.0529 24.1045 19.6467C21.7717 17.3139 18.9295 18.4592 18.8123 18.5076C18.6748 18.5654 18.5654 18.6732 18.5092 18.8107C18.4592 18.9311 17.3154 21.7701 19.6482 24.1029C20.8139 25.2686 22.1045 25.567 23.1201 25.567C23.6623 25.567 24.1154 25.4826 24.4389 25.3998V46.3123H9.93731V39.4639C10.2607 39.5467 10.7139 39.6311 11.2545 39.6311C12.2701 39.6311 13.5639 39.3326 14.7279 38.167C17.0607 35.8342 15.917 32.992 15.867 32.8717C15.8092 32.7342 15.7014 32.6264 15.5639 32.5701C15.4451 32.5186 12.6029 31.3764 10.2717 33.7092C9.86543 34.1139 9.59356 34.5342 9.37481 34.9545C9.15606 34.5342 8.88418 34.1139 8.47793 33.7092C6.14668 31.3779 3.30449 32.5186 3.18574 32.5701C3.04824 32.6264 2.93887 32.7342 2.88262 32.8717C2.83262 32.992 1.68887 35.8342 4.02168 38.167C5.18731 39.3311 6.47949 39.6311 7.49512 39.6311C8.03574 39.6311 8.48887 39.5467 8.81231 39.4639V46.3123H4.68731V47.4389H29.6873V46.3123H25.5623V36.1717L28.5232 33.2107L27.7264 32.4139L25.5623 34.5795V25.3998C25.8857 25.4826 26.3389 25.567 26.8811 25.567ZM8.65606 38.342C8.03887 38.5154 6.28731 38.8389 4.81699 37.3701C3.34199 35.8967 3.66543 34.1529 3.84512 33.5326C4.46231 33.3592 6.21387 33.0357 7.68418 34.5045C8.57168 35.392 8.80293 36.3717 8.81231 37.1514C8.81231 37.1936 8.81387 37.2311 8.81543 37.2717C8.80606 37.7326 8.72168 38.1139 8.65606 38.342ZM9.93887 37.1514C9.94668 36.3732 10.1795 35.392 11.067 34.5045C12.5436 33.0279 14.2873 33.3545 14.9061 33.5311C15.0873 34.1498 15.4107 35.8951 13.9342 37.3701C12.4576 38.8467 10.7139 38.5201 10.0951 38.3436C10.0279 38.1154 9.94356 37.7342 9.93574 37.2717C9.93574 37.2311 9.93887 37.1936 9.93887 37.1514ZM25.5639 23.0889C25.5717 22.3107 25.8045 21.3295 26.692 20.442C28.1654 18.967 29.9123 19.292 30.5295 19.4701C30.7045 20.0857 31.0264 21.8404 29.5576 23.3092C28.0826 24.7842 26.3373 24.4623 25.7201 24.2811C25.6529 24.0529 25.5686 23.6732 25.5607 23.2107C25.5607 23.167 25.5639 23.1311 25.5639 23.0889ZM20.442 23.3076C18.967 21.8311 19.2904 20.0873 19.4701 19.4686C20.0889 19.2873 21.8326 18.9639 23.3092 20.4404C24.1967 21.3279 24.4279 22.3092 24.4373 23.0873C24.4373 23.1295 24.4404 23.167 24.4404 23.2076C24.4326 23.6701 24.3467 24.0514 24.2811 24.2779C23.6623 24.4607 21.917 24.7842 20.442 23.3076ZM42.5061 11.5045C43.5217 11.5045 44.8139 11.2061 45.9795 10.0404C48.3123 7.70762 47.1686 4.86699 47.1186 4.74824C47.0623 4.61074 46.9545 4.50137 46.817 4.44512C46.6936 4.39668 43.8545 3.24981 41.5217 5.58418C41.1154 5.98887 40.8436 6.40918 40.6248 6.82793C40.4061 6.40918 40.1342 5.98887 39.7295 5.58418C37.3936 3.24981 34.5545 4.39668 34.4342 4.44512C34.2967 4.50293 34.1889 4.61074 34.1326 4.74824C34.0826 4.86856 32.9373 7.70918 35.2717 10.0404C36.4373 11.2061 37.7279 11.5045 38.7451 11.5045C39.2873 11.5045 39.7389 11.4201 40.0639 11.3373V28.3279L37.8998 26.1654L37.1029 26.9607L40.0639 29.9217V46.3123H35.9373V47.4389H45.3123V46.3123H41.1873V22.1076L44.1482 19.1467L43.3514 18.3514L41.1873 20.5154V11.3373C41.5123 11.4201 41.9654 11.5045 42.5061 11.5045ZM41.192 9.05293C41.1967 8.26856 41.4232 7.27168 42.317 6.37793C43.792 4.90293 45.5389 5.22793 46.1545 5.40606C46.3295 6.02168 46.6514 7.77637 45.1826 9.24512C43.7092 10.7201 41.9639 10.3967 41.3451 10.217C41.2795 9.98574 41.192 9.59356 41.1889 9.11543C41.1889 9.09356 41.192 9.07637 41.192 9.05293ZM36.067 9.24512C34.5904 7.76856 34.9139 6.02481 35.0936 5.40606C35.7154 5.22637 37.4576 4.90137 38.9326 6.37793C39.817 7.26074 40.0498 8.23574 40.0607 9.01231C40.0607 9.06231 40.0623 9.10762 40.0639 9.15762C40.0545 9.61387 39.9717 9.99043 39.9061 10.217C39.2873 10.3982 37.5436 10.7232 36.067 9.24512Z" fill="#4A98F7"/>
</svg>
