<svg width="50" height="50" viewBox="0 0 50 50" fill="none" xmlns="http://www.w3.org/2000/svg">
<path d="M17.1875 47.4375C10.8469 47.4375 5.6875 42.2781 5.6875 35.9375C5.6875 29.5969 10.8469 24.4375 17.1875 24.4375V25.5625C11.4672 25.5625 6.8125 30.2172 6.8125 35.9375C6.8125 41.6578 11.4672 46.3125 17.1875 46.3125C22.9078 46.3125 27.5625 41.6578 27.5625 35.9375H28.6891C28.6875 42.2797 23.5281 47.4375 17.1875 47.4375ZM37.5 44.3125C37.4578 44.3125 37.4125 44.3063 37.3719 44.2969C37.2188 44.2609 37.0891 44.1641 37.0125 44.0281L31.2125 33.9063C31.0359 33.5984 30.7047 33.4047 30.3469 33.4047L20.8656 33.3859C19.5672 33.3828 18.3922 32.7188 17.7188 31.6094C17.0453 30.5 17.0016 29.15 17.5984 27.9984L22.9438 17.6938C23.2531 17.1625 23.6047 16.6313 24.0344 16.1859H17.5359L14.5656 22.125L13.5594 21.6219L16.6844 15.3719C16.7797 15.1828 16.975 15.0625 17.1875 15.0625H26.5625C28.5094 15.0625 29.1984 16.0609 29.65 17.1406L31.7813 24.4375H39.1719V25.5625H31.3594C31.1094 25.5625 30.8891 25.3984 30.8188 25.1578L28.5891 17.5156C28.2172 16.6359 27.8094 16.1875 26.5609 16.1875C25.3703 16.1875 24.6469 17.0078 23.9266 18.2375L18.5953 28.5188C18.1797 29.3188 18.2109 30.2547 18.6797 31.025C19.1469 31.7969 19.9641 32.2578 20.8656 32.2594L30.3484 32.2781C31.1063 32.2813 31.8109 32.6906 32.1875 33.3484L37.6891 42.9484L41.8766 40.1578L42.4984 41.0953L37.8109 44.2203C37.7188 44.2797 37.6094 44.3125 37.5 44.3125ZM29.6875 13.0625C27.2234 13.0625 25.2188 11.0578 25.2188 8.59375C25.2188 6.12969 27.2234 4.125 29.6875 4.125C32.1516 4.125 34.1563 6.12969 34.1563 8.59375C34.1563 11.0578 32.1516 13.0625 29.6875 13.0625ZM29.6875 5.25C27.8438 5.25 26.3438 6.75 26.3438 8.59375C26.3438 10.4375 27.8438 11.9375 29.6875 11.9375C31.5313 11.9375 33.0313 10.4375 33.0313 8.59375C33.0313 6.75 31.5313 5.25 29.6875 5.25Z" fill="#4A98F7"/>
</svg>
