<svg width="50" height="50" viewBox="0 0 50 50" fill="none" xmlns="http://www.w3.org/2000/svg">
<path d="M25 49C24.6891 49 24.4375 48.7484 24.4375 48.4375V35.9375C24.4375 35.6266 24.6891 35.375 25 35.375C25.3109 35.375 25.5625 35.6266 25.5625 35.9375V48.4375C25.5625 48.7484 25.3109 49 25 49ZM22.4719 42.4781C22.3984 42.4781 22.3234 42.4625 22.2516 42.4328C20.6906 41.7656 19.6 40.0375 19.6 38.2266C19.6 36.3203 20.4094 34.8656 22.1484 33.6453C22.4047 33.4688 22.7531 33.5297 22.9312 33.7828C23.1094 34.0375 23.0484 34.3891 22.7937 34.5672C21.3437 35.5828 20.7234 36.6797 20.7234 38.2266C20.7234 39.6 21.5328 40.9047 22.6906 41.3984C22.9766 41.5203 23.1094 41.85 22.9875 42.1375C22.8984 42.35 22.6906 42.4781 22.4719 42.4781ZM27.5266 42.4781C27.3578 42.4781 27.1891 42.4 27.0781 42.2547C26.8906 42.0078 26.9391 41.6531 27.1859 41.4656C28.6297 40.3719 29.2719 39.5844 29.2719 37.8172C29.2719 35.6297 27.1172 34.1516 24.8359 32.5891C22.2703 30.8312 19.6187 29.0141 19.6187 25.9141C19.6187 24.1859 20.6328 22.6094 22.2031 21.8984C22.4859 21.7734 22.8203 21.8969 22.9484 22.1797C23.0766 22.4625 22.95 22.7969 22.6672 22.925C21.4984 23.4531 20.7437 24.6266 20.7437 25.9156C20.7437 28.4219 23.0406 29.9969 25.4719 31.6641C27.8937 33.3234 30.3984 35.0375 30.3984 37.8187C30.3984 40.025 29.5094 41.1172 27.8672 42.3641C27.7656 42.4391 27.6453 42.4781 27.5266 42.4781ZM27.5266 31.0078C27.3578 31.0078 27.1891 30.9297 27.0781 30.7844C26.8906 30.5359 26.9391 30.1828 27.1859 29.9953C28.6297 28.9031 29.2719 28.1172 29.2719 26.3484C29.2719 24.3953 27.5531 23.0078 25.5609 21.6219V28.1281C25.5609 28.4391 25.3094 28.6906 24.9984 28.6906C24.6875 28.6906 24.4359 28.4391 24.4359 28.1281V20.8484C22.0016 19.1734 19.6172 17.3875 19.6172 14.4469C19.6172 12.7172 20.6312 11.1406 22.2016 10.4312C22.4844 10.3062 22.8187 10.4297 22.9469 10.7125C23.075 10.9953 22.9484 11.3297 22.6656 11.4578C21.4969 11.9859 20.7422 13.1594 20.7422 14.4484C20.7422 16.5953 22.4266 18.0578 24.4359 19.4797V8.33281C22.6687 8.06094 21.3109 6.52969 21.3109 4.6875C21.3109 2.65469 22.9656 1 24.9984 1C27.0328 1 28.6859 2.65469 28.6859 4.6875C28.6859 6.52969 27.3281 8.06094 25.5609 8.33281V20.2547C27.9547 21.8937 30.3969 23.6016 30.3969 26.3484C30.3969 28.5562 29.5078 29.65 27.8656 30.8937C27.7656 30.9687 27.6453 31.0078 27.5266 31.0078ZM25 7.24844C25.0156 7.24844 25.0312 7.24844 25.0469 7.25C26.4375 7.225 27.5625 6.08594 27.5625 4.6875C27.5625 3.275 26.4141 2.125 25 2.125C23.5859 2.125 22.4375 3.275 22.4375 4.6875C22.4375 6.08594 23.5625 7.225 24.9531 7.25C24.9687 7.24844 24.9844 7.24844 25 7.24844ZM29.6875 20.875C29.4766 20.875 29.2734 20.7562 29.1797 20.5516C29.0469 20.2703 29.1672 19.9359 29.4484 19.8031C31.075 19.0359 32.3984 16.8656 32.3984 14.9625C32.3984 12.0031 34.0531 10.375 37.0531 10.375H46.875C47.1859 10.375 47.4375 10.6266 47.4375 10.9375C47.4375 11.2484 47.1859 11.5 46.875 11.5H37.0531C35.2125 11.5 34.1234 12.1422 33.7125 13.5H43.75C44.0609 13.5 44.3125 13.7516 44.3125 14.0625C44.3125 14.3734 44.0609 14.625 43.75 14.625H33.5312C33.525 14.7344 33.5234 14.8469 33.5234 14.9625C33.5234 15.4844 33.4344 16.0531 33.2672 16.6266H40.5922C40.9031 16.6266 41.1547 16.8781 41.1547 17.1891C41.1547 17.5 40.9031 17.7516 40.5922 17.7516H32.8375C32.225 19.0312 31.2281 20.2078 29.9281 20.8203C29.85 20.8578 29.7687 20.875 29.6875 20.875ZM20.3125 20.875C20.2312 20.875 20.15 20.8578 20.0734 20.8219C18.7734 20.2094 17.7766 19.0328 17.1656 17.7531H9.375C9.06406 17.7531 8.8125 17.5016 8.8125 17.1906C8.8125 16.8797 9.06406 16.6281 9.375 16.6281H16.7344C16.5672 16.0531 16.4797 15.4859 16.4797 14.9641C16.4797 14.8484 16.4766 14.7359 16.4719 14.6266H6.25C5.93906 14.625 5.6875 14.3734 5.6875 14.0625C5.6875 13.7516 5.93906 13.5 6.25 13.5H16.2906C15.8797 12.1422 14.7906 11.5 12.95 11.5H3.125C2.81406 11.5 2.5625 11.2484 2.5625 10.9375C2.5625 10.6266 2.81406 10.375 3.125 10.375H12.95C15.5812 10.375 17.175 11.6266 17.5297 13.9266C17.5375 13.9625 17.5437 13.9984 17.5453 14.0375C17.5844 14.3297 17.6047 14.6375 17.6047 14.9625C17.6047 16.8656 18.9266 19.0375 20.5516 19.8031C20.8328 19.9359 20.9531 20.2703 20.8203 20.5516C20.725 20.7562 20.5234 20.875 20.3125 20.875ZM27.5266 19.3141C27.35 19.3141 27.175 19.2312 27.0656 19.075C26.8875 18.8203 26.95 18.4703 27.2031 18.2922C28.6547 17.275 29.2719 16.1797 29.2719 14.6328C29.2719 13.2594 28.4625 11.9562 27.3047 11.4609C27.0187 11.3391 26.8859 11.0078 27.0094 10.7234C27.1312 10.4375 27.4641 10.3047 27.7484 10.4266C29.3078 11.0922 30.3984 12.8219 30.3984 14.6328C30.3984 16.5391 29.5875 17.9937 27.85 19.2141C27.7516 19.2812 27.6375 19.3141 27.5266 19.3141Z" fill="#4A98F7"/>
</svg>
