<svg width="50" height="50" viewBox="0 0 50 50" fill="none" xmlns="http://www.w3.org/2000/svg">
<path d="M49 48.4375H47.875C47.875 38.3875 40.4109 29.325 30.1266 26.8875C29.8922 26.8313 29.7188 26.6328 29.6969 26.3922C29.6734 26.1531 29.8078 25.925 30.0281 25.8266C34.4984 23.8375 37.3875 19.3953 37.3875 14.5125C37.3875 7.68281 31.8312 2.12656 25.0016 2.12656C18.1703 2.12656 12.6141 7.68281 12.6141 14.5125C12.6141 19.3953 15.5031 23.8375 19.975 25.8266C20.1953 25.925 20.3281 26.1531 20.3062 26.3922C20.2844 26.6328 20.1109 26.8313 19.8766 26.8875C9.58906 29.325 2.125 38.3875 2.125 48.4375H1C1 38.3438 8.14687 29.2 18.1906 26.175C14.075 23.7703 11.4859 19.3391 11.4859 14.5109C11.4859 7.06094 17.5469 1 24.9984 1C32.4484 1 38.5094 7.06094 38.5094 14.5109C38.5094 19.3391 35.9219 23.7703 31.8062 26.175C41.8531 29.2 49 38.3438 49 48.4375ZM25 47.4375C24.85 47.4375 24.7078 47.3781 24.6016 47.2734L18.4109 41.0781C17.6125 40.2781 17.1703 39.2172 17.1656 38.0859C17.1609 36.9438 17.6031 35.8672 18.4125 35.0578C19.2141 34.2563 20.2797 33.8141 21.4141 33.8109C21.4156 33.8109 21.4187 33.8109 21.4203 33.8109C22.5594 33.8109 23.6281 34.2531 24.4312 35.0578L25 35.6297L25.5703 35.0594C27.1734 33.4547 29.9844 33.4531 31.5891 35.0609C32.4125 35.8828 32.8562 36.9797 32.8359 38.1453C32.8141 39.2563 32.3719 40.2969 31.5875 41.0797L25.3984 47.275C25.2922 47.3781 25.15 47.4375 25 47.4375ZM21.4203 34.9375C21.4187 34.9375 21.4172 34.9375 21.4156 34.9375C20.5812 34.9391 19.7969 35.2641 19.2078 35.8547C18.6125 36.45 18.2859 37.2406 18.2906 38.0812C18.2937 38.9125 18.6203 39.6938 19.2078 40.2813L25 46.0781L30.7922 40.2813C31.3687 39.7063 31.6953 38.9406 31.7094 38.1234C31.725 37.2656 31.4 36.4609 30.7922 35.8547C29.6109 34.6703 27.5469 34.6719 26.3656 35.8531L25.3969 36.8219C25.1766 37.0422 24.8219 37.0422 24.6016 36.8219L23.6344 35.8547C23.0437 35.2625 22.2578 34.9375 21.4203 34.9375Z" fill="#4A98F7"/>
</svg>
