<svg width="51" height="50" fill="none" xmlns="http://www.w3.org/2000/svg"><path d="M49.667 40.625h-1.125V27.159a8.777 8.777 0 00-6.772-8.573.562.562 0 01-.099-1.061 4.784 4.784 0 002.84-4.367 4.787 4.787 0 00-4.782-4.783 4.787 4.787 0 00-4.781 4.783c0 1.886 1.114 3.6 2.84 4.367a.562.562 0 01-.413 1.045c-4.655-1.595-7.074-3.626-8.857-5.437-.156.742-.617 1.51-1.373 2.298-.203.21-.436.452-.694.716a2373.52 2373.52 0 005.864 5.972.558.558 0 01.163.395v18.111h-1.124v-17.88c-.708-.718-3.592-3.645-5.687-5.792-2.096 2.147-4.98 5.074-5.688 5.792v17.88h-1.125v-18.11c0-.15.058-.292.163-.396 0 0 5.27-5.344 7.32-7.47.761-.791 1.14-1.505 1.119-2.126-.013-.42-.217-.814-.606-1.171-.397-.364-1.222-1.124-2.97.726l-.282.3c-1.877 1.997-4.005 4.26-9.642 6.19a.562.562 0 01-.413-1.045 4.784 4.784 0 002.843-4.367 4.785 4.785 0 00-4.782-4.781 4.788 4.788 0 00-4.783 4.781c0 1.886 1.116 3.6 2.843 4.367a.563.563 0 01-.099 1.061 8.78 8.78 0 00-6.773 8.575v13.466H1.667V27.159a9.894 9.894 0 016.387-9.284 5.912 5.912 0 01-2.356-4.719 5.914 5.914 0 015.906-5.906 5.914 5.914 0 015.907 5.906 5.89 5.89 0 01-.905 3.138c3.187-1.511 4.698-3.12 6.172-4.688l.284-.301c1.666-1.763 3.198-2.025 4.547-.783.155.14.29.289.41.444l.343.365c1.498 1.599 3.155 3.366 6.347 4.928a5.874 5.874 0 01-.886-3.103 5.914 5.914 0 015.906-5.906 5.914 5.914 0 015.907 5.906 5.911 5.911 0 01-2.357 4.717 9.897 9.897 0 016.388 9.285v13.467z" fill="#4A98F7"/></svg>