<svg width="50" height="50" viewBox="0 0 50 50" fill="none" xmlns="http://www.w3.org/2000/svg">
<path d="M19.1547 34.9375C15.0703 34.9375 11.7188 38.1297 11.5219 42.2047C11.5156 42.3438 11.4563 42.4766 11.3578 42.575L5.08438 48.8344L4.28906 48.0375L10.4109 41.9297C10.7438 37.3594 14.5422 33.8109 19.1531 33.8109H31.2625C32.4344 33.8109 33.3875 34.7641 33.3875 35.9359C33.3875 36.0391 33.3828 36.1422 33.3734 36.2422L41.1844 29.8953C42.2203 28.8547 43.9812 28.8531 45.0594 29.9328C46.1406 31.0141 46.1391 32.7734 45.0609 33.8547L35.5266 43.3891C34.95 43.9656 34.1875 44.3375 33.3781 44.4391L22.1328 45.8438L19.1375 48.8328L18.3422 48.0359L21.4734 44.9109C21.5625 44.8219 21.6766 44.7656 21.8016 44.75L33.2391 43.3203C33.8 43.2516 34.3297 42.9922 34.7297 42.5906L44.2641 33.0563C44.9062 32.4156 44.9062 31.3703 44.2641 30.7266C43.6219 30.0844 42.575 30.0859 41.9359 30.7281L32.1906 38.65C31.5344 39.2531 30.6609 39.6203 29.7016 39.6203H21.8875V38.5H29.7016C30.3156 38.5 30.8781 38.2828 31.3203 37.9234L31.3156 37.9172L31.4594 37.8C31.9516 37.3328 32.2609 36.6719 32.2609 35.9422C32.2609 35.3891 31.8125 34.9391 31.2609 34.9391L19.1547 34.9375ZM25 30.25C23.9641 30.25 23.0984 29.5031 22.9125 28.5219C20.725 28.1688 18.675 27.2687 16.9281 25.8953C16.5687 26.1766 16.1156 26.3438 15.625 26.3438C14.4531 26.3438 13.5 25.3906 13.5 24.2188C13.5 23.6625 13.7156 23.1547 14.0672 22.775C13.0656 21.2453 12.3938 19.5141 12.1031 17.7125C11.1203 17.5266 10.375 16.6609 10.375 15.625C10.375 14.5891 11.1203 13.7234 12.1031 13.5375C12.3938 11.7375 13.0656 10.0047 14.0672 8.475C13.7156 8.09531 13.5 7.5875 13.5 7.03125C13.5 5.85938 14.4531 4.90625 15.625 4.90625C16.1156 4.90625 16.5687 5.07344 16.9281 5.35469C18.6734 3.97969 20.725 3.07969 22.9125 2.72813C23.0984 1.74531 23.9641 1 25 1C26.0359 1 26.9016 1.74531 27.0875 2.72813C29.275 3.07969 31.3266 3.97969 33.0719 5.35313C33.4313 5.07344 33.8844 4.90625 34.375 4.90625C35.5469 4.90625 36.5 5.85938 36.5 7.03125C36.5 7.5875 36.2844 8.09531 35.9328 8.475C36.9344 10.0031 37.6047 11.7359 37.8969 13.5375C38.8797 13.7234 39.625 14.5891 39.625 15.625C39.625 16.6609 38.8781 17.5266 37.8969 17.7125C37.6047 19.5125 36.9344 21.2453 35.9328 22.775C36.2859 23.1547 36.5 23.6609 36.5 24.2188C36.5 25.3906 35.5469 26.3438 34.375 26.3438C33.8844 26.3438 33.4313 26.1766 33.0719 25.8953C31.3266 27.2687 29.275 28.1688 27.0875 28.5219C26.9016 29.5047 26.0359 30.25 25 30.25ZM25 27.125C24.4484 27.125 24 27.5734 24 28.125C24 28.6766 24.4484 29.125 25 29.125C25.5516 29.125 26 28.6766 26 28.125C26 27.5734 25.5516 27.125 25 27.125ZM17.6031 24.9953C19.1781 26.2406 21.0281 27.0641 23.0031 27.3969C23.3016 26.5828 24.0828 26 25 26C25.9172 26 26.6984 26.5828 26.9953 27.3969C28.9719 27.0625 30.8203 26.2406 32.3969 24.9937C32.3 24.7531 32.2484 24.4922 32.2484 24.2172C32.2484 23.0453 33.2016 22.0922 34.3734 22.0922C34.5828 22.0922 34.7859 22.1234 34.9766 22.1797C35.8828 20.8016 36.4969 19.2422 36.7687 17.6203C35.9578 17.3234 35.375 16.5406 35.375 15.625C35.375 14.7094 35.9578 13.9266 36.7719 13.6281C36.4984 12.0047 35.8859 10.4453 34.9797 9.06875C34.7875 9.125 34.5844 9.15625 34.375 9.15625C33.2031 9.15625 32.25 8.20312 32.25 7.03125C32.25 6.75781 32.3031 6.49531 32.3984 6.25469C30.8219 5.00781 28.9719 4.18594 26.9969 3.85313C26.6984 4.66719 25.9156 5.25 25 5.25C24.0844 5.25 23.3016 4.66719 23.0031 3.85313C21.0281 4.18438 19.1781 5.00781 17.6031 6.25469C17.6984 6.49531 17.75 6.75781 17.75 7.03125C17.75 8.20312 16.7969 9.15625 15.625 9.15625C15.4156 9.15625 15.2125 9.125 15.0219 9.06875C14.1156 10.4469 13.5031 12.0062 13.2281 13.6281C14.0422 13.9266 14.625 14.7094 14.625 15.625C14.625 16.5406 14.0422 17.3234 13.2281 17.6219C13.5031 19.2437 14.1156 20.8031 15.0219 22.1812C15.2125 22.125 15.4156 22.0938 15.625 22.0938C16.7969 22.0938 17.75 23.0469 17.75 24.2188C17.75 24.4922 17.6984 24.7547 17.6031 24.9953ZM34.375 23.2187C33.8234 23.2187 33.375 23.6672 33.375 24.2188C33.375 24.7703 33.8234 25.2187 34.375 25.2187C34.9266 25.2187 35.375 24.7703 35.375 24.2188C35.375 23.6672 34.9266 23.2187 34.375 23.2187ZM15.625 23.2187C15.0734 23.2187 14.625 23.6672 14.625 24.2188C14.625 24.7703 15.0734 25.2187 15.625 25.2187C16.1766 25.2187 16.625 24.7703 16.625 24.2188C16.625 23.6672 16.1766 23.2187 15.625 23.2187ZM37.5 14.625C36.9484 14.625 36.5 15.0734 36.5 15.625C36.5 16.1766 36.9484 16.625 37.5 16.625C38.0516 16.625 38.5 16.1766 38.5 15.625C38.5 15.0734 38.0516 14.625 37.5 14.625ZM12.5 14.625C11.9484 14.625 11.5 15.0734 11.5 15.625C11.5 16.1766 11.9484 16.625 12.5 16.625C13.0516 16.625 13.5 16.1766 13.5 15.625C13.5 15.0734 13.0516 14.625 12.5 14.625ZM34.375 6.03125C33.8234 6.03125 33.375 6.47969 33.375 7.03125C33.375 7.58281 33.8234 8.03125 34.375 8.03125C34.9266 8.03125 35.375 7.58281 35.375 7.03125C35.375 6.47969 34.9266 6.03125 34.375 6.03125ZM15.625 6.03125C15.0734 6.03125 14.625 6.47969 14.625 7.03125C14.625 7.58281 15.0734 8.03125 15.625 8.03125C16.1766 8.03125 16.625 7.58281 16.625 7.03125C16.625 6.47969 16.1766 6.03125 15.625 6.03125ZM25 2.125C24.4484 2.125 24 2.57344 24 3.125C24 3.67656 24.4484 4.125 25 4.125C25.5516 4.125 26 3.67656 26 3.125C26 2.57344 25.5516 2.125 25 2.125ZM25 11.5C23.8281 11.5 22.875 10.5469 22.875 9.375C22.875 8.20312 23.8281 7.25 25 7.25C26.1719 7.25 27.125 8.20312 27.125 9.375C27.125 10.5469 26.1719 11.5 25 11.5ZM25 8.375C24.4484 8.375 24 8.82344 24 9.375C24 9.92656 24.4484 10.375 25 10.375C25.5516 10.375 26 9.92656 26 9.375C26 8.82344 25.5516 8.375 25 8.375ZM26.5625 24C26.2516 24 26 23.7484 26 23.4375V18.5312H24V23.4375C24 23.7484 23.7484 24 23.4375 24C23.1266 24 22.875 23.7484 22.875 23.4375V13.0625H18.75C18.4391 13.0625 18.1875 12.8109 18.1875 12.5C18.1875 12.1891 18.4391 11.9375 18.75 11.9375H31.25C31.5609 11.9375 31.8125 12.1891 31.8125 12.5C31.8125 12.8109 31.5609 13.0625 31.25 13.0625H27.125V23.4375C27.125 23.7484 26.8734 24 26.5625 24ZM24 17.4062H26V13.0625H24V17.4062Z" fill="#4A98F7"/>
</svg>
