<svg width="50" height="50" fill="none" xmlns="http://www.w3.org/2000/svg"><path d="M36.5 48.438h-1.124v-7.813c0-.31.251-.563.562-.563a7.257 7.257 0 007.25-7.25v-4.687c0-.31.252-.563.563-.563h3.125a.973.973 0 00.848-.473.976.976 0 00.042-.973l-4.49-7.064a.56.56 0 01-.088-.302v-1.563c0-10.135-5.437-15.062-16.625-15.062h-1V13.5h4.638a4.505 4.505 0 013.393-1.563 4.474 4.474 0 014.47 4.47 4.474 4.474 0 01-4.47 4.468 4.505 4.505 0 01-3.393-1.563h-4.638v8.813c0 .31-.251.563-.562.563h-5.469a.559.559 0 01-.448-.226 3.379 3.379 0 00-2.677-1.337 3.348 3.348 0 00-3.344 3.344c0 1.843 1.5 3.343 3.344 3.343 1.042 0 2.044-.5 2.677-1.337a.563.563 0 01.448-.225h5.469c.31 0 .562.252.562.563v15.624h-1.125V33.376h-4.637a4.505 4.505 0 01-3.394 1.563 4.474 4.474 0 01-4.469-4.47A4.474 4.474 0 0116.407 26c1.297 0 2.544.58 3.394 1.563h4.637V18.75c0-.31.252-.563.563-.563h5.468a.56.56 0 01.449.224 3.373 3.373 0 002.676 1.339c1.844 0 3.344-1.5 3.344-3.344 0-1.843-1.5-3.343-3.344-3.343-1.042 0-2.043.5-2.676 1.339a.56.56 0 01-.448.223H25a.562.562 0 01-.562-.563V2.126h-1c-11.187 0-16.625 4.927-16.625 15.063v1.562c0 .106-.031.21-.087.302l-4.52 7.114c-.13.267-.115.623.071.923a.98.98 0 00.849.474H6.25c.31 0 .562.251.562.562v4.688c0 3.998 3.253 7.25 7.25 7.25.311 0 .563.251.563.562v7.813H13.5v-7.27c-4.358-.29-7.813-3.927-7.813-8.355v-4.126H3.126c-.74 0-1.416-.376-1.807-1.007a2.11 2.11 0 01-.092-2.07l4.461-7.024v-1.398C5.688 6.444 11.66 1 23.438 1h3.125c11.778 0 17.75 5.445 17.75 16.188v1.4l4.431 6.974c.361.715.327 1.488-.062 2.12a2.115 2.115 0 01-1.806 1.007h-2.563v4.123c0 4.429-3.456 8.066-7.812 8.357v7.269z" fill="#4A98F7"/></svg>