<svg width="51" height="50" fill="none" xmlns="http://www.w3.org/2000/svg"><path d="M44.646 48.438H43.52v-8.183c0-8.468-5.749-15.744-13.978-17.694a.562.562 0 01-.099-1.061 10.137 10.137 0 006.017-9.248c0-5.583-4.542-10.125-10.125-10.125-5.584 0-10.126 4.542-10.126 10.125 0 3.992 2.362 7.621 6.017 9.248a.56.56 0 01-.098 1.06c-8.235 1.95-13.983 9.228-13.983 17.695v8.182H6.02v-8.182c0-8.507 5.464-15.882 13.454-18.405a11.262 11.262 0 01-5.393-9.6C14.082 6.047 19.129 1 25.333 1c6.205 0 11.252 5.047 11.252 11.25 0 3.945-2.077 7.573-5.394 9.6 7.99 2.523 13.455 9.897 13.455 18.405v8.182zM31.982 36.335l-.797-.797-7.414 7.416-2.728-2.728-.796.796 3.524 3.522 8.21-8.21z" fill="#4A98F7"/></svg>