<svg width="50" height="50" viewBox="0 0 50 50" fill="none" xmlns="http://www.w3.org/2000/svg">
<path d="M30.7766 47.8754C31.4188 47.2113 31.8156 46.3082 31.8156 45.3129V45.3113V22.4363H35.7547C35.7875 22.4363 35.8172 22.4348 35.8469 22.4285C37.2234 22.2957 38.2047 20.3988 38.2047 19.1051C38.2047 18.4598 37.9594 17.8457 37.5312 17.3957C37.5141 17.3754 35.7531 15.3535 34.0875 13.6238C32.6328 12.0738 30.6203 10.8941 28.425 10.2816C29.6 9.29883 30.3109 7.83008 30.3109 6.25351C30.3109 3.3582 27.9297 1.00195 25.0016 1.00195C22.075 1.00195 19.6953 3.3582 19.6953 6.25351C19.6953 7.83008 20.4047 9.29883 21.5797 10.2816C19.4125 10.8863 17.4406 12.0426 15.9219 13.6176C14.2484 15.3535 12.4891 17.3754 12.4875 17.3785C12.0437 17.8473 11.8 18.4598 11.8 19.1051C11.8 20.3988 12.7797 22.2957 14.1563 22.4285C14.1859 22.4332 14.2172 22.4363 14.2484 22.4363H18.1906V24.7551L12.6781 29.941C11.5719 31.2332 11.7266 33.1848 13.0016 34.2738L19.6578 40.4473C20.8375 41.4566 23.1734 41.4176 24.4359 40.4723V45.3113L24.4406 45.3129C24.4406 46.3082 24.8359 47.2113 25.4797 47.8754H1.5625V49.0019H48.4375V47.8754H30.7766ZM14.3109 21.3113C13.6672 21.3113 12.9234 19.9754 12.9234 19.1035C12.9234 18.7473 13.0578 18.4082 13.3188 18.1316C13.3359 18.1113 15.0781 16.1098 16.7313 14.3957C18.3828 12.6816 20.6328 11.5098 23.0719 11.0941C23.1687 11.0879 23.2641 11.0582 23.3469 11.002C23.5063 10.8988 23.6031 10.7191 23.6031 10.5285C23.6031 10.3629 23.5312 10.2066 23.4047 10.1004C23.3469 10.0504 23.2797 10.0145 23.2094 9.99258C21.7547 9.31602 20.8188 7.85508 20.8188 6.24883C20.8188 3.97383 22.6938 2.12227 25 2.12227C27.3078 2.12227 29.1844 3.97383 29.1844 6.24883C29.1844 7.8582 28.2438 9.32226 26.7828 9.9957C26.7156 10.0191 26.6531 10.0535 26.5984 10.1004C26.4719 10.2066 26.4 10.366 26.4 10.5316C26.4 10.7223 26.4969 10.8988 26.6562 11.0035C26.7437 11.0598 26.8406 11.0895 26.9406 11.0941C29.3938 11.5145 31.6984 12.7129 33.275 14.3941C34.9266 16.1082 36.6672 18.1082 36.7 18.1473C36.9453 18.4066 37.0797 18.7441 37.0797 19.1004C37.0797 19.9723 36.3359 21.3082 35.6937 21.3082H25.5656V16.1879C26.0172 16.3504 26.5078 16.6566 26.9594 16.9441C27.6297 17.3723 28.2078 17.7426 28.775 17.7457H31.1516C31.4625 17.7457 31.7141 17.4941 31.7141 17.1832C31.7141 16.8723 31.4609 16.6207 31.1516 16.6207H28.7766C28.5375 16.6191 27.9969 16.2738 27.5641 15.9973C26.7906 15.5035 25.9156 14.9441 24.9891 14.9441C24.0875 14.9441 23.2125 15.5035 22.4406 15.9973C22.0063 16.2738 21.4656 16.6191 21.2313 16.6207H18.8547C18.5438 16.6207 18.2922 16.8723 18.2922 17.1832C18.2922 17.4941 18.5438 17.7457 18.8547 17.7457H21.2344C21.8 17.7426 22.3781 17.3723 23.0469 16.9441C23.4953 16.6582 23.9828 16.3535 24.4406 16.191V21.3082H14.3109V21.3113ZM24.4359 35.7066L20.9109 32.2098C21.6047 31.5488 22.9703 30.2488 23.5625 29.6816L24.4359 30.0582V35.7066ZM30.6906 45.3113C30.6906 46.7254 29.5422 47.8754 28.1281 47.8754C26.7141 47.8754 25.5656 46.7269 25.5656 45.3129L25.5609 45.3113V38.3207C25.5719 38.1707 25.5719 38.0223 25.5609 37.8723V29.6863C25.5609 29.4613 25.4281 29.2598 25.2203 29.1691L23.6625 28.4988C23.4516 28.4082 23.2047 28.4566 23.0422 28.6191C22.8781 28.7848 19.7156 31.791 19.7156 31.791C19.6063 31.8957 19.5422 32.0394 19.5406 32.1926C19.5391 32.3457 19.5984 32.491 19.7063 32.5988L23.7547 36.6129C24.1656 36.966 24.3953 37.452 24.4344 37.952V38.2551C24.4031 38.6551 24.25 39.0488 23.9719 39.3754C23.2891 40.1707 21.2141 40.2957 20.4047 39.6066L13.7484 33.4332C12.9281 32.7301 12.8297 31.491 13.4891 30.7144L19.1375 25.4066C19.25 25.3004 19.3141 25.152 19.3141 24.9973V22.4348H30.6891L30.6906 45.3113Z" fill="#4A98F7"/>
</svg>
